<svg width="425" height="654" xmlns="http://www.w3.org/2000/svg">
 <g id="Layer_1">
  <title>Layer 1</title>
  <path id="svg_4" d="m295.67756,1.34887c91.58877,78.50466 -135.514,135.514 5.60748,220.56072c141.12148,85.04672 122.42989,33.64486 122.42989,33.64486c0,0 0.93458,-254.20557 0.93458,-254.20557c0,0 -116.82241,-1.86916 -117.1729,-1.34887" stroke="#dfc8f7" fill="#dfc8f7" opacity="0.23"/>
  <path id="svg_15" d="m424.62124,277.7139l-0.37876,-277.7139l-264.6465,0c0.37876,-0.06392 189.26768,41.35023 109.46968,101.9563c-79.79799,60.60607 149.49497,175.7576 149.49497,175.7576" stroke="#dfc8f7" fill="#dfc8f7" opacity="0.23"/>
  <ellipse fill="#896af8" stroke="#896af8" cx="304.6147" cy="152.43551" id="svg_2" rx="5.37634" ry="6.04839"/>
  <path fill="#896af8" stroke="#896af8" opacity="1" d="m-241.65796,-132.93428c0,0 -2.84697,26.69039 9.96441,30.96085c12.81139,4.27046 19.57295,16.37011 19.57295,16.01423c0,-0.35587 -29.53736,-46.97509 -29.53736,-46.97509l0,0.00001z" id="svg_9"/>
  <path fill="#896af8" stroke="#896af8" opacity="1" d="m298.17611,161.37482" id="svg_11"/>
  <path fill="#896af8" stroke="#896af8" opacity="1" d="m299.24372,162.79831c22.41993,9.96441 28.11388,-0.71174 27.80251,-0.87662c0.31137,0.16488 12.05514,-3.03797 -15.34699,11.1969c-27.40213,14.23488 16.3701,35.94306 16.3701,35.94306c0,0 -12.81138,-14.05694 -22.82028,-26.86832c-10.00889,-12.81139 -17.2153,-24.37723 -6.00534,-19.39502z" id="svg_12"/>
  <path fill="#9592fa" stroke="#9592fa" opacity="1" d="m334.60623,146.0403l17.04212,-0.5458l-2.1978,24.3956l2.1978,1.31868l19.78022,-22.85714l21.0989,2.1978l-59.56044,58.9011l-2.63736,-0.87912l4.27656,-62.53113l0,0.00001z" id="svg_20"/>
  <path fill="#9592fa" stroke="#9592fa" opacity="1" d="m-854.58659,-367.04011l17.2619,-0.76558l1.31868,-16.48352l17.58242,19.34066l21.53846,2.63736c0.10074,0.10624 -48.25091,-61.87179 -48.25091,-61.87179c0,0 -3.73626,1.31868 -3.837,1.21245c0.10074,0.10623 -19.89926,33.07327 -5.61355,55.93041l0,0.00001z" id="svg_23"/>
  <path fill="#89a4f9" stroke="#89a4f9" opacity="1" d="m334.38645,145.60074l17.04212,-0.98536l1.53846,-17.58242l18.02198,20.65934l22.1978,2.1978l-48.35165,-61.53846l-3.2967,0.43956l-1.53846,2.41758l-5.61355,54.39195l0,0.00001z" id="svg_24"/>
  <path fill="#89a4f9" stroke="#89a4f9" opacity="1" d="m312.42492,215.04204" id="svg_26"/>
  <path fill="#f8a5b3" stroke="#f8a5b3" opacity="1" d="m313.05552,215.05126c36.66667,-0.25641 32.05128,-6.41026 32.05128,-6.41026c0,0 0,34.87179 -31.53846,8.20513" id="svg_27"/>
  <path fill="#89a4f9" stroke="#89a4f9" stroke-width="0" opacity="1" d="m294.52671,220.09641c7.14286,-8.7108 10.80139,-4.87805 10.80139,-4.87805c0,0 -30.48781,-4.52962 -11.84669,4.70383" id="svg_29"/>
  <path fill="#89a4f9" stroke="#89a4f9" stroke-width="0" opacity="1" d="m305.85076,207.0302c5.92335,2.09059 3.48432,-4.70383 4.00697,4.70383" id="svg_31"/>
  <ellipse fill="#dab1ed" stroke="#89a4f9" stroke-width="0" cx="185.17262" cy="5.1321" id="svg_32" rx="10.58558" ry="10.36036"/>
  <text fill="#b098f4" stroke="#b098f4" stroke-width="0" x="19.5" y="129.33333" id="svg_3" font-size="29" font-family="Noto Sans JP" text-anchor="start" xml:space="preserve">Good Morning</text>
  <text fill="#b098f4" stroke="#b098f4" stroke-width="0" x="16.88596" y="170.95322" id="svg_5" font-size="37" font-family="Noto Sans JP" text-anchor="start" xml:space="preserve" font-weight="bold">Arya</text>
  <ellipse fill="#ffffff" stroke="#ffffff" stroke-width="3" cx="39.16642" cy="39.86923" id="svg_33" rx="24.44448" ry="23.88893"/>
  <line fill="none" stroke="#b098f4" x1="28.98505" y1="34.42046" x2="49.32403" y2="34.42046" id="svg_21" stroke-width="3"/>
  <line fill="none" stroke="#b098f4" x1="28.98505" y1="40.47373" x2="49.32403" y2="40.47373" id="svg_22" stroke-width="3"/>
  <line fill="none" stroke="#b098f4" x1="29.22718" y1="46.28486" x2="49.56616" y2="46.28486" id="svg_25" stroke-width="3"/>
  <ellipse fill="#ffffff" stroke="#ffffff" stroke-width="3" cx="385.19671" cy="39.20256" id="svg_34" rx="24.44448" ry="23.88893"/>
  <path fill="#896af8" stroke="#896af8" d="m393.90112,37.93337c0,-6.32612 -3.33043,-8.47804 -6.44517,-8.95768c0,-0.03241 0.00634,-0.06482 0.00634,-0.10371c0,-0.79725 -0.69146,-1.43245 -1.53517,-1.43245c-0.84371,0 -1.50979,0.6352 -1.50979,1.43245c0,0.03889 0,0.0713 0.00634,0.10371c-3.12108,0.48613 -6.47054,2.64452 -6.47054,8.97064c0,7.37615 -1.79526,8.16691 -4.20585,10.24105l24.35968,0c-2.39791,-2.08062 -4.20585,-2.87787 -4.20585,-10.25402z" id="svg_6"/>
  <path fill="#896af8" stroke="#896af8" d="m385.75428,52.29027c1.29057,0 2.35,-1.31183 2.48965,-2.83461l-4.97931,0c0.13484,1.52278 1.19908,2.83461 2.48965,2.83461z" id="svg_7"/>
  <rect id="svg_10" height="215" width="393" y="303.33333" x="16.5" stroke="#000000" fill="#ffffff"/>
  <text xml:space="preserve" text-anchor="start" font-family="Noto Sans JP" font-size="24" stroke-width="0" id="svg_13" y="326.33333" x="21.5" stroke="#000000" fill="#000000">Todos los cosas así</text>
  <rect stroke="#89a4f9" id="svg_44" height="34.61536" width="176.15374" y="230.17916" x="32.11521" fill="#ffffff"/>
  <line id="svg_37" y2="258.82086" x2="43.71887" y1="237.55221" x1="43.71887" stroke="#b098f4" fill="none"/>
  <line id="svg_38" y2="256.95519" x2="42.59947" y1="256.95519" x1="63.86812" stroke="#b098f4" fill="none"/>
  <line id="svg_39" y2="257.70146" x2="42.59947" y1="245.76116" x1="50.43529" stroke="#b098f4" fill="none"/>
  <line stroke="#b098f4" id="svg_40" y2="245.86756" x2="55.36214" y1="241.65669" x1="61.25618" fill="none"/>
  <line stroke="#b098f4" id="svg_41" y2="245.76115" x2="56.0323" y1="246.03531" x1="49.68902" fill="none"/>
  <text xml:space="preserve" text-anchor="start" font-family="Noto Sans JP" font-size="17" stroke-width="0" id="svg_42" y="253.72592" x="69.5863" stroke="#b098f4" fill="#000000">Learning Analysis</text>
 </g>

</svg>